<svg xmlns="http://www.w3.org/2000/svg" width="57.583" height="52.355" viewBox="0 0 57.583 52.355">
  <g id="Danger" transform="translate(-0.018 0)">
    <path id="Danger-2" data-name="Danger" d="M8,52.355l-.091-.008-.239.005a8.317,8.317,0,0,1-2-.36l-.643-.228A8.148,8.148,0,0,1,.489,41.377l.187-.493L21.629,4.209a8.155,8.155,0,0,1,13.995-.467l.262.441,21.091,36.95a8.1,8.1,0,0,1-1.351,8.362,8.272,8.272,0,0,1-5.382,2.819l-.508.041Zm41.621-4.318a3.834,3.834,0,0,0,3.631-4.015,5.012,5.012,0,0,0-.091-.713l-.062-.28L32.117,6.3A3.833,3.833,0,0,0,26.9,4.808,3.739,3.739,0,0,0,25.634,5.95l-.236.376L4.553,42.77a3.829,3.829,0,0,0,2.1,4.987,4.07,4.07,0,0,0,.83.231l.433.049L8,48.032Zm-23.02-9.8a2.176,2.176,0,0,1,2.16-2.179,2.15,2.15,0,0,1,2.163,2.145v.034a2.162,2.162,0,0,1-4.323,0Zm-.01-7.988-.018-.293V21.026a2.161,2.161,0,0,1,4.3-.293l.018.293V29.96a2.161,2.161,0,0,1-4.3.293Z" transform="translate(0.018 0)" fill="#ffcc01"/>
  </g>
</svg>
