<svg xmlns="http://www.w3.org/2000/svg" width="191.098" height="32.712" viewBox="0 0 191.098 32.712">
  <g id="Layer_2" data-name="Layer 2" transform="translate(0.012 1.138)">
    <g id="Layer_1" data-name="Layer 1" transform="translate(-0.012 -3.611)">
      <path id="Path_5593" data-name="Path 5593" d="M41.426,0C35.211,0,29.065,5.041,27.691,11.263a11.469,11.469,0,0,0-.261,2.163l6.881,8.88a10.6,10.6,0,0,0,2.129.213c6.215,0,12.362-5.041,13.735-11.256S47.642,0,41.426,0Zm4.691,11.263a9.477,9.477,0,0,1-8.777,7.184c-3.97,0-6.469-3.221-5.59-7.184a9.475,9.475,0,0,1,8.77-7.184C44.483,4.079,47,7.294,46.117,11.263Z" transform="translate(-8.584 2.48)" fill="#fff"/>
      <path id="Path_5594" data-name="Path 5594" d="M104.617,11.26a9.272,9.272,0,0,0,1.8-2.06A7.884,7.884,0,0,0,107.5,6.624a6.263,6.263,0,0,0,.055-2.569A5.068,5.068,0,0,0,102.324,0H92.647l-.893,4.079h9.7a2,2,0,0,1,1.978,2.569,3.434,3.434,0,0,1-3.118,2.575H90.587l-.907,4.073h9.7a2,2,0,0,1,1.978,2.548h0l-1.374,6.1-.117.515h4.073l1.477-6.641a6.291,6.291,0,0,0,.048-2.575,5.089,5.089,0,0,0-.852-1.978Z" transform="translate(-28.082 2.483)" fill="#fff"/>
      <path id="Path_5595" data-name="Path 5595" d="M206.311,0H189.877l-.907,4.1h4.073L189,22.313h4.1L197.136,4.1H205.4Z" transform="translate(-59.182 2.48)" fill="#fff"/>
      <path id="Path_5596" data-name="Path 5596" d="M11.843.206h0a14.779,14.779,0,0,0-7.4,3.867A14.855,14.855,0,0,0,.958,9.1h0c-.137.316-.254.639-.364.961a.133.133,0,0,1-.034.11,9.88,9.88,0,0,0-.3,1.078h0c-.082.371-.137.735-.185,1.113v.11A9.443,9.443,0,0,0,0,13.413H0a9.072,9.072,0,0,0,1.264,5.02A8.44,8.44,0,0,0,6.912,22.3h0a10.693,10.693,0,0,0,2.06.206h3.915l.9-4.079H9.872a6.785,6.785,0,0,1-1.47-.165q-.309-.076-.6-.165a5.583,5.583,0,0,1-1.861-1.064h0A5.343,5.343,0,0,1,4.8,15.521h0a6.085,6.085,0,0,1-.46-1.271,6.668,6.668,0,0,1-.144-.838c0-.144,0-.288,0-.44V11.9a2.724,2.724,0,0,1,.117-.646c.055-.22.1-.433.172-.646a.94.94,0,0,1,.1-.275c.034-.1.076-.213.117-.316s.1-.247.158-.371l.048-.11c.069-.144.144-.3.22-.44.158-.282.33-.563.515-.831A9.615,9.615,0,0,1,6.665,7h0a9.917,9.917,0,0,1,1.9-1.5h0A9.374,9.374,0,0,1,10.888,4.43c.227-.069.453-.117.687-.165a7.3,7.3,0,0,1,1.545-.172h3.915L17.928,0H14.02a12.231,12.231,0,0,0-2.177.206Z" transform="translate(0.012 2.48)" fill="#fff"/>
      <path id="Path_5597" data-name="Path 5597" d="M128.72,13.289a5.034,5.034,0,0,0-.9-2.06A5.213,5.213,0,0,0,123.63,9.2h-.652a1.992,1.992,0,0,1-1.909-2.569,3.393,3.393,0,0,1,3.118-2.569h7.087L132.181,0h-7.067a8.7,8.7,0,0,0-7.033,4.079A7.912,7.912,0,0,0,117,6.648a6.181,6.181,0,0,0-.055,2.569h0a5.075,5.075,0,0,0,.893,2.06,5.206,5.206,0,0,0,4.2,2.06h.652a2,2,0,0,1,1.909,2.569,3.434,3.434,0,0,1-3.118,2.575H114.38l-.9,4.073h7.067a8.715,8.715,0,0,0,7.026-4.114,7.946,7.946,0,0,0,1.085-2.575,6.181,6.181,0,0,0,.055-2.569Z" transform="translate(-35.537 2.48)" fill="#fff"/>
      <path id="Path_5598" data-name="Path 5598" d="M151.59,13.289a5.034,5.034,0,0,0-.9-2.06A5.213,5.213,0,0,0,146.5,9.2h-.652a2,2,0,0,1-1.916-2.569,3.434,3.434,0,0,1,3.118-2.569h7.094L155.051,0h-7.067a8.7,8.7,0,0,0-7.033,4.079,8.083,8.083,0,0,0-1.092,2.569,6.256,6.256,0,0,0-.048,2.569h0a5.075,5.075,0,0,0,.893,2.06,5.192,5.192,0,0,0,4.189,2.06h.687a2,2,0,0,1,1.909,2.569,3.434,3.434,0,0,1-3.139,2.534h-7.1l-.9,4.073h7.067a8.722,8.722,0,0,0,7.033-4.073,7.946,7.946,0,0,0,1.085-2.575,6.264,6.264,0,0,0,.055-2.569Z" transform="translate(-42.7 2.48)" fill="#fff"/>
      <path id="Path_5599" data-name="Path 5599" d="M77.871,0,76.25,7.3l-1.566,7.06A5.384,5.384,0,0,1,69.7,18.44a3.173,3.173,0,0,1-3.173-4.079L68.091,7.3,69.705,0H65.626l-3.18,14.36a6.463,6.463,0,0,0,2.514,7.06,6.868,6.868,0,0,0,3.839,1.1,9.532,9.532,0,0,0,4.32-1.1,10.851,10.851,0,0,0,5.645-7.06L81.944,0Z" transform="translate(-19.487 2.48)" fill="#fff"/>
      <path id="Path_5600" data-name="Path 5600" d="M176.257,1.105A6.813,6.813,0,0,0,172.425,0a9.457,9.457,0,0,0-4.32,1.106,10.837,10.837,0,0,0-5.645,7.06l-3.18,14.354h4.079l1.614-7.294.433-1.937h8.159l-.426,1.937-1.621,7.294h4.052l3.18-14.354A6.415,6.415,0,0,0,176.257,1.105ZM166.3,9.223l.233-1.058a5.384,5.384,0,0,1,4.993-4.045A3.173,3.173,0,0,1,174.7,8.2l-.233,1.058Z" transform="translate(-49.882 2.481)" fill="#fff"/>
      <path id="Path_5601" data-name="Path 5601" d="M107.194,8.508a2,2,0,0,0-1.978-2.569H93.41l-1.14,5.144h11.819A3.393,3.393,0,0,0,107.194,8.508Z" transform="translate(-28.893 0.62)" fill="none"/>
      <path id="Path_5602" data-name="Path 5602" d="M162.057,32.79Z" transform="translate(-50.75 -7.79)" fill="none"/>
      <path id="Path_5603" data-name="Path 5603" d="M34.607,28.816h0L28.33,20.76h3.695a5.735,5.735,0,0,0,.467,1.271,5.226,5.226,0,0,0,1.188,1.518,5.357,5.357,0,0,0,1.861,1.064,5.583,5.583,0,0,0,.6.172l-1.538,4.031Z" transform="translate(-8.865 -4.022)" fill="#fff"/>
      <path id="Path_5604" data-name="Path 5604" d="M31.556,19v.343a.8.8,0,0,0,.055.357l-4.251-.357Z" transform="translate(-8.562 -3.471)" fill="#fff"/>
      <path id="Path_5605" data-name="Path 5605" d="M34.086,19.54h-6.7v.007l6.916,8.887h.007l.934-4.2.549-2.493.488-2.2Z" transform="translate(-8.571 -3.64)" fill="#f8b100"/>
      <ellipse id="Ellipse_15" data-name="Ellipse 15" cx="8.022" cy="6.435" rx="8.022" ry="6.435" transform="translate(20.084 14.298) rotate(-41.84)" fill="none"/>
      <text id="_.com" data-name=".com" transform="translate(138.098 29.185)" fill="#f8b100" font-size="23" font-family="SegoeUI-Bold, Segoe UI" font-weight="700"><tspan x="0" y="0">.com</tspan></text>
    </g>
  </g>
</svg>
