<svg xmlns="http://www.w3.org/2000/svg" width="303.715" height="140.798" viewBox="0 0 303.715 140.798">
  <g id="Group_24" data-name="Group 24" transform="translate(-287 -231)">
    <path id="Path_7" data-name="Path 7" d="M540.068,305.667a6.286,6.286,0,0,1-1.844-.27,4.046,4.046,0,0,1-1.365-.7l.48-.84a4.158,4.158,0,0,0,1.245.645,5.085,5.085,0,0,0,1.56.24,2.992,2.992,0,0,0,1.589-.33,1.088,1.088,0,0,0,.525-.96.834.834,0,0,0-.285-.675,1.763,1.763,0,0,0-.72-.375,9.086,9.086,0,0,0-1.155-.255,14.6,14.6,0,0,1-1.544-.36,2.386,2.386,0,0,1-1-.645,1.794,1.794,0,0,1-.4-1.245,1.95,1.95,0,0,1,.825-1.62,3.7,3.7,0,0,1,2.294-.63,5.755,5.755,0,0,1,1.529.21,4.084,4.084,0,0,1,1.26.525l-.465.855a3.981,3.981,0,0,0-2.324-.675,2.734,2.734,0,0,0-1.544.36,1.106,1.106,0,0,0-.51.945.945.945,0,0,0,.285.72,1.941,1.941,0,0,0,.735.4q.435.12,1.2.255a13.8,13.8,0,0,1,1.515.36,2.225,2.225,0,0,1,.975.615,1.692,1.692,0,0,1,.4,1.2,1.922,1.922,0,0,1-.87,1.649A4.1,4.1,0,0,1,540.068,305.667Zm-8.244-8.023a3.181,3.181,0,0,1,2.354.87,3.325,3.325,0,0,1,.885,2.5v4.574H534v-4.469a2.615,2.615,0,0,0-.615-1.874,2.31,2.31,0,0,0-1.754-.645,2.705,2.705,0,0,0-2.024.765,2.851,2.851,0,0,0-.735,2.084v4.139h-1.065V297.7h1.02v1.455a2.922,2.922,0,0,1,1.2-1.11A3.85,3.85,0,0,1,531.824,297.644Zm-10.2,7.078a2.982,2.982,0,0,0,1.5-.375,2.7,2.7,0,0,0,1.05-1.095,3.621,3.621,0,0,0,0-3.209,2.6,2.6,0,0,0-1.05-1.08,2.891,2.891,0,0,0-1.5-.39,2.972,2.972,0,0,0-1.515.39,2.73,2.73,0,0,0-1.05,1.08,3.622,3.622,0,0,0,0,3.209,2.838,2.838,0,0,0,1.05,1.095A3.066,3.066,0,0,0,521.627,304.722Zm0,.945a4.147,4.147,0,0,1-2.054-.51,3.827,3.827,0,0,1-1.44-1.44,4.342,4.342,0,0,1,0-4.139,3.719,3.719,0,0,1,1.44-1.425,4.394,4.394,0,0,1,4.109,0,3.616,3.616,0,0,1,1.425,1.425,4.342,4.342,0,0,1,0,4.139,3.719,3.719,0,0,1-1.425,1.44A4.147,4.147,0,0,1,521.627,305.667Zm-6.711-9.687a.754.754,0,0,1-.555-.225.737.737,0,0,1-.225-.54.719.719,0,0,1,.225-.525.8.8,0,0,1,1.11,0,.672.672,0,0,1,.225.51.768.768,0,0,1-.78.78Zm-.54,1.724h1.065v7.888h-1.065Zm-1.938,7.408a2.094,2.094,0,0,1-.75.42,3.068,3.068,0,0,1-.915.135,2.089,2.089,0,0,1-2.309-2.294V298.6h-1.41v-.9h1.41v-1.724h1.065V297.7h2.4v.9h-2.4v4.708a1.539,1.539,0,0,0,.345,1.08,1.379,1.379,0,0,0,1.02.36,1.892,1.892,0,0,0,.63-.1,1.572,1.572,0,0,0,.54-.3ZM505.3,297.7v7.888h-1.02v-1.44a2.973,2.973,0,0,1-1.155,1.125,3.529,3.529,0,0,1-1.679.39,3.036,3.036,0,0,1-3.329-3.389V297.7h1.065v4.469a2.637,2.637,0,0,0,.615,1.889,2.309,2.309,0,0,0,1.754.645,2.6,2.6,0,0,0,1.964-.75,2.962,2.962,0,0,0,.72-2.114V297.7Zm-11.135-3.239h1.065v11.127h-1.065Zm-6.176,10.257a2.982,2.982,0,0,0,1.5-.375,2.7,2.7,0,0,0,1.05-1.095,3.621,3.621,0,0,0,0-3.209,2.6,2.6,0,0,0-1.05-1.08,2.891,2.891,0,0,0-1.5-.39,2.972,2.972,0,0,0-1.515.39,2.729,2.729,0,0,0-1.05,1.08,3.621,3.621,0,0,0,0,3.209,2.838,2.838,0,0,0,1.05,1.095A3.066,3.066,0,0,0,487.991,304.722Zm0,.945a4.147,4.147,0,0,1-2.054-.51,3.827,3.827,0,0,1-1.44-1.44,4.342,4.342,0,0,1,0-4.139,3.719,3.719,0,0,1,1.44-1.425,4.394,4.394,0,0,1,4.109,0,3.616,3.616,0,0,1,1.425,1.425,4.342,4.342,0,0,1,0,4.139,3.719,3.719,0,0,1-1.425,1.44A4.147,4.147,0,0,1,487.991,305.667Zm-9.33.015a6.808,6.808,0,0,1-2.249-.375,4.122,4.122,0,0,1-1.649-.99l.435-.855a4.243,4.243,0,0,0,1.515.93,5.641,5.641,0,0,0,1.949.345,3.6,3.6,0,0,0,2.114-.51,1.613,1.613,0,0,0,.7-1.35,1.329,1.329,0,0,0-.39-1,2.431,2.431,0,0,0-.93-.57,13.7,13.7,0,0,0-1.545-.45,17.508,17.508,0,0,1-1.889-.57,3.239,3.239,0,0,1-1.215-.855,2.275,2.275,0,0,1-.495-1.545,2.582,2.582,0,0,1,.42-1.44,2.856,2.856,0,0,1,1.29-1.05,5.279,5.279,0,0,1,2.159-.39,6.107,6.107,0,0,1,1.754.255,4.922,4.922,0,0,1,1.5.675l-.375.885a5,5,0,0,0-1.41-.645,5.1,5.1,0,0,0-1.47-.225,3.391,3.391,0,0,0-2.084.54,1.637,1.637,0,0,0-.69,1.365,1.41,1.41,0,0,0,.375,1.02,2.719,2.719,0,0,0,.96.585q.585.2,1.56.435a14.188,14.188,0,0,1,1.859.57,2.957,2.957,0,0,1,1.215.84,2.193,2.193,0,0,1,.495,1.515,2.588,2.588,0,0,1-.435,1.455,2.888,2.888,0,0,1-1.3,1.035A5.577,5.577,0,0,1,478.66,305.681Zm-11.071-11.216h1.065v11.127h-1.065Zm-6.46,10.362a2.845,2.845,0,0,0,1.544-.4,2.505,2.505,0,0,0,.96-1.2v-1.29h-2.474q-2.024,0-2.024,1.41a1.31,1.31,0,0,0,.525,1.095A2.423,2.423,0,0,0,461.129,304.827Zm.375-7.183a3.319,3.319,0,0,1,2.369.78,2.959,2.959,0,0,1,.825,2.279v4.888h-1.02v-1.23a2.434,2.434,0,0,1-1.065.96,3.652,3.652,0,0,1-1.65.345,3.244,3.244,0,0,1-2.1-.63,2.174,2.174,0,0,1-.06-3.284,3.592,3.592,0,0,1,2.324-.615h2.5v-.48a2,2,0,0,0-.57-1.545,2.332,2.332,0,0,0-1.664-.54,4.119,4.119,0,0,0-1.44.255,3.526,3.526,0,0,0-1.185.675l-.48-.795a4.157,4.157,0,0,1,1.44-.78A5.468,5.468,0,0,1,461.5,297.644Zm-4.7,7.468a2.094,2.094,0,0,1-.75.42,3.069,3.069,0,0,1-.915.135,2.089,2.089,0,0,1-2.309-2.294V298.6h-1.41v-.9h1.41v-1.724H453.9V297.7h2.4v.9h-2.4v4.708a1.539,1.539,0,0,0,.345,1.08,1.379,1.379,0,0,0,1.02.36,1.892,1.892,0,0,0,.63-.1,1.573,1.573,0,0,0,.54-.3Zm-7.641-9.132a.754.754,0,0,1-.555-.225.736.736,0,0,1-.225-.54.719.719,0,0,1,.225-.525.8.8,0,0,1,1.11,0,.672.672,0,0,1,.225.51.768.768,0,0,1-.78.78Zm-.54,1.724h1.065v7.888h-1.065Zm-7.009,6.643a3.288,3.288,0,0,0,1.544-.36,2.653,2.653,0,0,0,1.065-1.035,2.891,2.891,0,0,0,.39-1.5,2.812,2.812,0,0,0-.39-1.485,2.555,2.555,0,0,0-1.065-1.02,3.126,3.126,0,0,0-1.544-.375,3.288,3.288,0,0,0-1.544.36,2.679,2.679,0,0,0-1.065,1.02,3.186,3.186,0,0,0,0,3,2.785,2.785,0,0,0,1.065,1.035A3.288,3.288,0,0,0,441.615,304.347Zm4.034-6.643v6.928a3.971,3.971,0,0,1-.99,2.969,4.016,4.016,0,0,1-2.954.975,6.547,6.547,0,0,1-2.084-.33,4.2,4.2,0,0,1-1.59-.885l.54-.81a4.064,4.064,0,0,0,1.38.795,5.246,5.246,0,0,0,1.724.285,3.008,3.008,0,0,0,2.2-.7,2.908,2.908,0,0,0,.7-2.159v-1a3.2,3.2,0,0,1-1.3,1.14,3.963,3.963,0,0,1-1.769.39,4.291,4.291,0,0,1-2.024-.48,3.737,3.737,0,0,1-1.425-1.365,3.922,3.922,0,0,1-.51-1.994,3.841,3.841,0,0,1,.51-1.979,3.627,3.627,0,0,1,1.425-1.35,4.233,4.233,0,0,1,2.024-.48,4,4,0,0,1,1.814.4,3.271,3.271,0,0,1,1.3,1.17V297.7Zm-10.79-1.724a.754.754,0,0,1-.555-.225.736.736,0,0,1-.225-.54.719.719,0,0,1,.225-.525.8.8,0,0,1,1.11,0,.672.672,0,0,1,.225.51.768.768,0,0,1-.78.78Zm-.54,1.724h1.065v7.888h-1.065Zm-7.951,6.928a5.148,5.148,0,0,0,2.414-.54,4.044,4.044,0,0,0,1.6-1.514,4.345,4.345,0,0,0,.57-2.234,4.264,4.264,0,0,0-.57-2.219,3.91,3.91,0,0,0-1.6-1.515,5.033,5.033,0,0,0-2.414-.555h-3.1v8.577Zm-4.214-9.537h4.274a6.188,6.188,0,0,1,2.939.675,4.8,4.8,0,0,1,1.979,1.859,5.206,5.206,0,0,1,.7,2.714,5.286,5.286,0,0,1-.7,2.729,4.936,4.936,0,0,1-1.979,1.859,6.3,6.3,0,0,1-2.939.66h-4.274Zm-6.088,10.017a2.094,2.094,0,0,1-.75.42,3.068,3.068,0,0,1-.915.135,2.089,2.089,0,0,1-2.309-2.294V298.6h-1.409v-.9h1.409v-1.724h1.065V297.7h2.4v.9h-2.4v4.708a1.539,1.539,0,0,0,.345,1.08,1.379,1.379,0,0,0,1.02.36,1.892,1.892,0,0,0,.63-.1,1.572,1.572,0,0,0,.54-.3Zm-9.422.555a4.293,4.293,0,0,1-2.1-.51,3.719,3.719,0,0,1-1.44-1.424,4.165,4.165,0,0,1-.525-2.084,4.083,4.083,0,0,1,.525-2.069,3.719,3.719,0,0,1,1.44-1.425,4.294,4.294,0,0,1,2.1-.51,3.942,3.942,0,0,1,1.814.4,2.967,2.967,0,0,1,1.275,1.155l-.795.54a2.43,2.43,0,0,0-.99-.87,2.876,2.876,0,0,0-1.3-.3,3.083,3.083,0,0,0-1.544.39,2.7,2.7,0,0,0-1.065,1.08,3.653,3.653,0,0,0,0,3.224,2.832,2.832,0,0,0,1.065,1.08,3.182,3.182,0,0,0,1.544.375,3,3,0,0,0,1.3-.285,2.43,2.43,0,0,0,.99-.87l.795.54a3.065,3.065,0,0,1-1.275,1.17A4.129,4.129,0,0,1,406.645,305.667Zm-9.259-7.108a2.693,2.693,0,0,0-1.919.735,2.842,2.842,0,0,0-.87,1.889h5.593a2.812,2.812,0,0,0-.885-1.889A2.66,2.66,0,0,0,397.386,298.559Zm3.809,3.419h-6.6a2.845,2.845,0,0,0,.945,1.994,3.155,3.155,0,0,0,2.159.75,3.489,3.489,0,0,0,1.35-.255,3.028,3.028,0,0,0,1.065-.78l.6.69a3.366,3.366,0,0,1-1.32.96,4.382,4.382,0,0,1-1.724.33,4.474,4.474,0,0,1-2.159-.51,3.8,3.8,0,0,1-1.455-1.44,4.082,4.082,0,0,1-.525-2.069,4.279,4.279,0,0,1,.495-2.069,3.707,3.707,0,0,1,1.38-1.425,3.893,3.893,0,0,1,1.979-.51,3.812,3.812,0,0,1,1.964.51,3.6,3.6,0,0,1,1.365,1.425,4.224,4.224,0,0,1,.495,2.069Zm-13.028-4.334a3.181,3.181,0,0,1,2.354.87,3.325,3.325,0,0,1,.885,2.5v4.574h-1.065v-4.469a2.615,2.615,0,0,0-.615-1.874,2.31,2.31,0,0,0-1.754-.645,2.705,2.705,0,0,0-2.024.765,2.851,2.851,0,0,0-.735,2.084v4.139h-1.065V297.7h1.02v1.455a2.922,2.922,0,0,1,1.2-1.11A3.85,3.85,0,0,1,388.167,297.644Zm-10.148,0a3.181,3.181,0,0,1,2.354.87,3.325,3.325,0,0,1,.885,2.5v4.574h-1.065v-4.469a2.615,2.615,0,0,0-.615-1.874,2.31,2.31,0,0,0-1.754-.645,2.705,2.705,0,0,0-2.024.765,2.851,2.851,0,0,0-.735,2.084v4.139H374V297.7h1.02v1.455a2.921,2.921,0,0,1,1.2-1.11A3.851,3.851,0,0,1,378.019,297.644Zm-10.2,7.078a2.982,2.982,0,0,0,1.5-.375,2.7,2.7,0,0,0,1.05-1.095,3.622,3.622,0,0,0,0-3.209,2.6,2.6,0,0,0-1.05-1.08,2.891,2.891,0,0,0-1.5-.39,2.972,2.972,0,0,0-1.515.39,2.729,2.729,0,0,0-1.05,1.08,3.621,3.621,0,0,0,0,3.209,2.838,2.838,0,0,0,1.05,1.095A3.066,3.066,0,0,0,367.824,304.722Zm0,.945a4.147,4.147,0,0,1-2.054-.51,3.827,3.827,0,0,1-1.44-1.44,4.342,4.342,0,0,1,0-4.139,3.719,3.719,0,0,1,1.44-1.425,4.394,4.394,0,0,1,4.109,0,3.616,3.616,0,0,1,1.425,1.425,4.342,4.342,0,0,1,0,4.139,3.719,3.719,0,0,1-1.425,1.44A4.147,4.147,0,0,1,367.824,305.667Zm-8.867.015a5.771,5.771,0,0,1-2.819-.69,5.136,5.136,0,0,1-1.964-1.9,5.419,5.419,0,0,1-.7-2.744,5.338,5.338,0,0,1,.7-2.729,5.075,5.075,0,0,1,1.979-1.919,5.771,5.771,0,0,1,2.819-.69,5.841,5.841,0,0,1,2.159.39,4.476,4.476,0,0,1,1.68,1.14l-.7.7a4.181,4.181,0,0,0-3.1-1.245,4.562,4.562,0,0,0-2.264.57,4.218,4.218,0,0,0-1.6,1.56,4.607,4.607,0,0,0,0,4.439,4.218,4.218,0,0,0,1.6,1.559,4.561,4.561,0,0,0,2.264.57,4.124,4.124,0,0,0,3.1-1.26l.7.7a4.6,4.6,0,0,1-1.694,1.155A5.841,5.841,0,0,1,358.956,305.681Z" transform="translate(44.277 42.277)" fill="#fff"/>
    <path id="Path_8" data-name="Path 8" d="M527.84,310.119l-3.944,8.832a3.769,3.769,0,0,1-1.11,1.574,2.479,2.479,0,0,1-1.515.465,3.092,3.092,0,0,1-1.065-.18,2.306,2.306,0,0,1-.855-.54l.495-.795a1.963,1.963,0,0,0,1.44.6,1.418,1.418,0,0,0,.915-.3,2.673,2.673,0,0,0,.72-1.02l.345-.765-3.524-7.872h1.11l2.969,6.7,2.969-6.7Zm-12.611-.06a3.181,3.181,0,0,1,2.354.87,3.325,3.325,0,0,1,.885,2.5v4.574H517.4v-4.469a2.615,2.615,0,0,0-.615-1.874,2.309,2.309,0,0,0-1.755-.645,2.705,2.705,0,0,0-2.024.765,2.851,2.851,0,0,0-.735,2.084v4.139h-1.065v-7.888h1.02v1.455a2.923,2.923,0,0,1,1.2-1.11A3.849,3.849,0,0,1,515.229,310.059Zm-10.48,7.183a2.845,2.845,0,0,0,1.544-.4,2.5,2.5,0,0,0,.96-1.2v-1.29h-2.474q-2.024,0-2.024,1.41a1.31,1.31,0,0,0,.525,1.095A2.423,2.423,0,0,0,504.749,317.242Zm.375-7.183a3.319,3.319,0,0,1,2.369.78,2.959,2.959,0,0,1,.825,2.279v4.888H507.3v-1.23a2.434,2.434,0,0,1-1.065.96,3.652,3.652,0,0,1-1.649.345,3.245,3.245,0,0,1-2.1-.63,2.174,2.174,0,0,1-.06-3.284,3.592,3.592,0,0,1,2.324-.615h2.5v-.48a2,2,0,0,0-.57-1.544,2.332,2.332,0,0,0-1.664-.54,4.12,4.12,0,0,0-1.44.255,3.526,3.526,0,0,0-1.185.675l-.48-.795a4.157,4.157,0,0,1,1.44-.78A5.471,5.471,0,0,1,505.124,310.059Zm-8.889,7.078a3.035,3.035,0,0,0,1.5-.375,2.7,2.7,0,0,0,1.05-1.095,3.259,3.259,0,0,0,.39-1.6,3.175,3.175,0,0,0-.39-1.589,2.7,2.7,0,0,0-1.05-1.095,3.108,3.108,0,0,0-3.014,0,2.838,2.838,0,0,0-1.05,1.095,3.276,3.276,0,0,0-.375,1.589,3.364,3.364,0,0,0,.375,1.6,2.838,2.838,0,0,0,1.05,1.095A3.065,3.065,0,0,0,496.235,317.137Zm.075-7.078a4,4,0,0,1,2.009.51,3.541,3.541,0,0,1,1.41,1.41,4.546,4.546,0,0,1,0,4.184,3.644,3.644,0,0,1-1.41,1.425,4.045,4.045,0,0,1-2.009.495,3.835,3.835,0,0,1-1.74-.39,3.357,3.357,0,0,1-1.26-1.17v4.394h-1.065v-10.8h1.02v1.56a3.3,3.3,0,0,1,1.26-1.2A3.761,3.761,0,0,1,496.31,310.059Zm-10.13,0a3.11,3.11,0,0,1,2.324.855,3.416,3.416,0,0,1,.855,2.519v4.574h-1.065v-4.469a2.656,2.656,0,0,0-.6-1.874,2.132,2.132,0,0,0-1.665-.645,2.5,2.5,0,0,0-1.934.765,2.923,2.923,0,0,0-.7,2.084v4.139h-1.065v-4.469a2.656,2.656,0,0,0-.6-1.874,2.151,2.151,0,0,0-1.68-.645,2.53,2.53,0,0,0-1.934.765,2.923,2.923,0,0,0-.7,2.084v4.139h-1.065v-7.888h1.02v1.44a2.845,2.845,0,0,1,1.17-1.11,3.685,3.685,0,0,1,1.724-.39,3.334,3.334,0,0,1,1.709.42,2.57,2.57,0,0,1,1.095,1.245,3.037,3.037,0,0,1,1.245-1.215A3.85,3.85,0,0,1,486.18,310.059Zm-16.015,7.078a2.981,2.981,0,0,0,1.5-.375,2.7,2.7,0,0,0,1.05-1.095,3.621,3.621,0,0,0,0-3.209,2.6,2.6,0,0,0-1.05-1.08,2.892,2.892,0,0,0-1.5-.39,2.973,2.973,0,0,0-1.515.39,2.729,2.729,0,0,0-1.05,1.08,3.621,3.621,0,0,0,0,3.209,2.838,2.838,0,0,0,1.05,1.095A3.065,3.065,0,0,0,470.165,317.137Zm0,.945a4.147,4.147,0,0,1-2.054-.51,3.827,3.827,0,0,1-1.44-1.44,4.342,4.342,0,0,1,0-4.139,3.719,3.719,0,0,1,1.44-1.425,4.394,4.394,0,0,1,4.109,0,3.616,3.616,0,0,1,1.424,1.425,4.342,4.342,0,0,1,0,4.139,3.719,3.719,0,0,1-1.424,1.44A4.147,4.147,0,0,1,470.165,318.082Zm-8.866.015a5.772,5.772,0,0,1-2.819-.69,5.136,5.136,0,0,1-1.964-1.9,5.42,5.42,0,0,1-.7-2.744,5.338,5.338,0,0,1,.7-2.729,5.075,5.075,0,0,1,1.979-1.919,5.771,5.771,0,0,1,2.819-.69,5.84,5.84,0,0,1,2.159.39,4.476,4.476,0,0,1,1.68,1.14l-.7.7a4.181,4.181,0,0,0-3.1-1.245,4.562,4.562,0,0,0-2.264.57,4.218,4.218,0,0,0-1.6,1.56,4.606,4.606,0,0,0,0,4.439,4.218,4.218,0,0,0,1.6,1.56,4.562,4.562,0,0,0,2.264.57,4.125,4.125,0,0,0,3.1-1.26l.7.7a4.6,4.6,0,0,1-1.694,1.155A5.841,5.841,0,0,1,461.3,318.1Zm-15.16.075a8.7,8.7,0,0,1-2.384-.315,6.109,6.109,0,0,1-1.889-.87l.69-1.829a6.255,6.255,0,0,0,1.08.585,6.7,6.7,0,0,0,1.2.375,7.042,7.042,0,0,0,1.32.12,2.667,2.667,0,0,0,1.529-.33.993.993,0,0,0,.465-.84.831.831,0,0,0-.315-.7,2.713,2.713,0,0,0-1.11-.435l-1.769-.36a4.211,4.211,0,0,1-2.174-1.02,2.594,2.594,0,0,1-.72-1.919,2.947,2.947,0,0,1,.54-1.769,3.536,3.536,0,0,1,1.515-1.17,5.877,5.877,0,0,1,2.309-.42,6.789,6.789,0,0,1,2.1.315,4.229,4.229,0,0,1,1.6.9l-.69,1.709a4.17,4.17,0,0,0-1.38-.735,5.2,5.2,0,0,0-1.679-.255,2.728,2.728,0,0,0-1.5.345,1.083,1.083,0,0,0-.51.945.946.946,0,0,0,.315.735,2.563,2.563,0,0,0,1.11.435l1.739.345a4.317,4.317,0,0,1,2.2,1,2.5,2.5,0,0,1,.72,1.874,2.833,2.833,0,0,1-.54,1.724,3.477,3.477,0,0,1-1.5,1.155A5.842,5.842,0,0,1,446.139,318.172Zm-11.6-6.088h2.294a1.782,1.782,0,0,0,1.245-.375,1.334,1.334,0,0,0,.42-1.05,1.288,1.288,0,0,0-.42-1.035,1.782,1.782,0,0,0-1.245-.375h-2.294Zm-2.339,5.923V307.435h4.933a3.777,3.777,0,0,1,2.7.87,3.039,3.039,0,0,1,.93,2.354,3.117,3.117,0,0,1-.93,2.369,3.777,3.777,0,0,1-2.7.87h-2.594v4.109Zm-6.783-3.254v-1.769h4.724v1.769Zm-2.393,3.419a3.071,3.071,0,0,1-2.234-.735,3.033,3.033,0,0,1-.75-2.234v-3.1H418.6V310.4h1.44v-1.859l2.264-.555V310.4h1.949V312.1H422.3v2.984a1.3,1.3,0,0,0,.3.99,1.1,1.1,0,0,0,.765.27,2.923,2.923,0,0,0,.465-.03,3.653,3.653,0,0,0,.4-.12v1.754a2.422,2.422,0,0,1-.6.165A3.283,3.283,0,0,1,423.022,318.172Zm-7.568,0a4.519,4.519,0,0,1-2.129-.48,3.35,3.35,0,0,1-1.41-1.38,4.352,4.352,0,0,1-.495-2.129,4.213,4.213,0,0,1,.495-2.114,3.4,3.4,0,0,1,1.41-1.35,4.64,4.64,0,0,1,2.129-.465,4.946,4.946,0,0,1,1.485.225,3.249,3.249,0,0,1,1.2.63l-.66,1.56a2.38,2.38,0,0,0-.87-.51,2.64,2.64,0,0,0-.93-.18,1.813,1.813,0,0,0-1.424.57,2.923,2.923,0,0,0,0,3.3,1.813,1.813,0,0,0,1.424.57,2.815,2.815,0,0,0,.915-.165,2.658,2.658,0,0,0,.885-.495l.66,1.544a3.588,3.588,0,0,1-1.215.645A4.9,4.9,0,0,1,415.454,318.172Zm-8.081,0a4.279,4.279,0,0,1-3.089-1.065,3.822,3.822,0,0,1-1.11-2.894,4.388,4.388,0,0,1,.465-2.069,3.507,3.507,0,0,1,1.32-1.38,3.818,3.818,0,0,1,1.994-.51,3.412,3.412,0,0,1,1.874.48,2.908,2.908,0,0,1,1.14,1.35,4.765,4.765,0,0,1,.39,1.994v.525h-5.323v-1.125h3.674l-.255.21a2.221,2.221,0,0,0-.39-1.425,1.289,1.289,0,0,0-1.095-.495,1.442,1.442,0,0,0-1.23.585,2.854,2.854,0,0,0-.42,1.68v.24a2.245,2.245,0,0,0,.54,1.65,2.187,2.187,0,0,0,1.589.54,4.3,4.3,0,0,0,1.155-.15,3.644,3.644,0,0,0,1.05-.51l.63,1.5a4.272,4.272,0,0,1-1.32.645A5.405,5.405,0,0,1,407.373,318.172Zm-13.019-.165v-5.623q0-.48-.03-.975-.03-.51-.09-1h2.174l.165,1.41h-.18a2.708,2.708,0,0,1,1.065-1.155,3.111,3.111,0,0,1,1.6-.4,2.467,2.467,0,0,1,1.994.78,3.536,3.536,0,0,1,.675,2.384v4.589h-2.264v-4.484a1.787,1.787,0,0,0-.3-1.17,1.129,1.129,0,0,0-.9-.345,1.566,1.566,0,0,0-1.2.48,1.734,1.734,0,0,0-.45,1.26v4.259Zm-9.2,0v-5.623q0-.48-.03-.975-.03-.51-.09-1h2.174l.165,1.41h-.18a2.709,2.709,0,0,1,1.065-1.155,3.112,3.112,0,0,1,1.6-.4,2.467,2.467,0,0,1,1.994.78,3.536,3.536,0,0,1,.675,2.384v4.589H390.27v-4.484a1.787,1.787,0,0,0-.3-1.17,1.128,1.128,0,0,0-.9-.345,1.566,1.566,0,0,0-1.2.48,1.734,1.734,0,0,0-.45,1.26v4.259Zm-5.45-1.544a1.5,1.5,0,0,0,1.23-.555,2.625,2.625,0,0,0,.465-1.709,2.56,2.56,0,0,0-.465-1.694,1.515,1.515,0,0,0-1.23-.54,1.559,1.559,0,0,0-1.245.54,2.621,2.621,0,0,0-.45,1.694,2.688,2.688,0,0,0,.45,1.709A1.541,1.541,0,0,0,379.707,316.462Zm0,1.709a4.429,4.429,0,0,1-2.114-.48,3.52,3.52,0,0,1-1.38-1.38,4.865,4.865,0,0,1,0-4.214,3.42,3.42,0,0,1,1.38-1.365,4.9,4.9,0,0,1,4.229,0,3.3,3.3,0,0,1,1.38,1.365,4.732,4.732,0,0,1,0,4.214,3.4,3.4,0,0,1-1.38,1.38A4.429,4.429,0,0,1,379.707,318.172Zm-8.074,0a5.9,5.9,0,0,1-2.909-.675,4.671,4.671,0,0,1-1.874-1.889,6.149,6.149,0,0,1-.645-2.894,6.059,6.059,0,0,1,.645-2.879,4.672,4.672,0,0,1,1.874-1.889,5.9,5.9,0,0,1,2.909-.675,6,6,0,0,1,1.994.315,4.135,4.135,0,0,1,1.53.885l-.735,1.844a4.806,4.806,0,0,0-1.32-.765,4.04,4.04,0,0,0-1.395-.225,2.905,2.905,0,0,0-2.279.885,3.631,3.631,0,0,0-.78,2.5,3.69,3.69,0,0,0,.78,2.519,2.905,2.905,0,0,0,2.279.885,4.04,4.04,0,0,0,1.395-.225,4.8,4.8,0,0,0,1.32-.765l.735,1.844a4.427,4.427,0,0,1-1.53.885A6,6,0,0,1,371.633,318.172Zm-15.094-.93a2.845,2.845,0,0,0,1.545-.4,2.5,2.5,0,0,0,.96-1.2v-1.29h-2.474q-2.024,0-2.024,1.41a1.31,1.31,0,0,0,.525,1.095A2.423,2.423,0,0,0,356.539,317.242Zm.375-7.183a3.319,3.319,0,0,1,2.369.78,2.959,2.959,0,0,1,.825,2.279v4.888h-1.02v-1.23a2.434,2.434,0,0,1-1.065.96,3.652,3.652,0,0,1-1.65.345,3.244,3.244,0,0,1-2.1-.63,2.174,2.174,0,0,1-.06-3.284,3.592,3.592,0,0,1,2.324-.615h2.5v-.48a2,2,0,0,0-.57-1.544,2.332,2.332,0,0,0-1.664-.54,4.12,4.12,0,0,0-1.44.255,3.527,3.527,0,0,0-1.185.675l-.48-.795a4.157,4.157,0,0,1,1.44-.78A5.472,5.472,0,0,1,356.914,310.059Z" transform="translate(44.295 50.807)" fill="#fff"/>
    <path id="Path_9" data-name="Path 9" d="M398.1,269.331c-1.909,1.165-2.216,2.213-2.216,7.578s.307,6.415,2.216,7.578c.973.595,1.786.688,6,.688,7.876,0,8.321-.438,8.321-8.266s-.445-8.267-8.321-8.266C399.883,268.645,399.07,268.738,398.1,269.331Zm123.551-37.938a25.925,25.925,0,0,0-21.682,19.174,36.469,36.469,0,0,0,0,15.085c2.521,9.54,8.8,15.723,19.036,18.741,1.671.492,5.117.6,24.807.765l22.866.195,1.859.84c3.9,1.763,5.926,5.553,5.632,10.538-.247,4.142-1.963,6.95-5.167,8.452l-1.973.925-33.508.1-33.51.1v16.54l34.389-.107,34.388-.108,2.638-.8c9.644-2.936,16.035-9.215,18.5-18.178a40.215,40.215,0,0,0,.337-13.921c-2.014-9.939-8.632-16.975-18.9-20.089-2.518-.763-3.107-.786-25.445-.976l-22.866-.193-1.863-.841c-3.527-1.594-5.348-4.782-5.348-9.36,0-4.764,1.581-7.769,5.048-9.6l1.811-.956,29.814-.1,29.816-.1V231l-29.287.043C536.937,231.067,522.808,231.225,521.648,231.393Zm-125.767,7.868v8.262l31.222.093c30.837.093,31.239.1,32.615.825a5.313,5.313,0,0,1,2.2,2.254l.8,1.523V276.8c0,19.965-.09,24.8-.48,25.73a6.612,6.612,0,0,1-4.017,3.386c-.853.238-11.918.365-31.825.365l-30.519,0v16.561l32.277-.1,32.278-.105,2.463-.823a26.125,26.125,0,0,0,9.672-5.557,20.707,20.707,0,0,0,5.568-8.624l.941-2.579V249.821l-1.02-3.114a22.2,22.2,0,0,0-11.333-13.323c-4.942-2.374-4.684-2.358-39.624-2.373L395.881,231ZM305.8,231.375c-8.644,1.271-15.31,7.479-18,16.758-.793,2.739-.795,2.781-.795,28.953,0,29.566-.087,28.494,2.726,33.9,3.2,6.15,9.489,10.383,17.051,11.476,1.413.2,14.914.348,33.08.352l30.7.007V306.3l-31.4-.1-31.4-.095-1.331-.826a6.6,6.6,0,0,1-2.029-2.2c-.681-1.335-.7-2.016-.6-26.612l.095-25.242.82-1.15c1.8-2.519-.46-2.358,34.448-2.464l31.4-.1V231l-31.4.043C321.886,231.067,306.874,231.215,305.8,231.375Z" transform="translate(0 0)" fill="#fff" fill-rule="evenodd"/>
  </g>
</svg>
