<svg id="Group_84236" data-name="Group 84236" xmlns="http://www.w3.org/2000/svg" width="131.77" height="145.649" viewBox="0 0 131.77 145.649">
  <rect id="Rectangle_2560" data-name="Rectangle 2560" width="110.971" height="145.649" rx="2" fill="#37a825"/>
  <path id="Path_84179" data-name="Path 84179" d="M152.011,102.936H120.8a3.468,3.468,0,1,1,0-6.936h31.21a3.468,3.468,0,1,1,0,6.936Z" transform="translate(-99.994 -75.193)" fill="#bceab5"/>
  <path id="Path_84180" data-name="Path 84180" d="M184.227,166.935H120.8a3.468,3.468,0,1,1,0-6.936h63.427a3.468,3.468,0,1,1,0,6.936Z" transform="translate(-99.994 -118.386)" fill="#bceab5"/>
  <path id="Path_84181" data-name="Path 84181" d="M172.194,230.935H120.8a3.468,3.468,0,1,1,0-6.935h51.393a3.468,3.468,0,1,1,0,6.935Z" transform="translate(-99.994 -161.579)" fill="#bceab5"/>
  <path id="Path_84182" data-name="Path 84182" d="M160.2,294.936H120.8a3.468,3.468,0,1,1,0-6.936H160.2a3.468,3.468,0,1,1,0,6.936Z" transform="translate(-99.994 -204.772)" fill="#bceab5"/>
  <path id="Path_84183" data-name="Path 84183" d="M120.8,377.761A3.468,3.468,0,0,1,117.574,373l3.71-9.294a6.936,6.936,0,0,1,12.88-.014l1.276,3.19.392-.586a6.9,6.9,0,0,1,11.551.034l3,4.487h2.865a3.468,3.468,0,0,1,0,6.936h-4.716a3.467,3.467,0,0,1-2.882-1.54l-4.057-6.068-2.209,3.326a5.211,5.211,0,0,1-9.155-.936l-2.5-6.253-3.718,9.294a3.468,3.468,0,0,1-3.222,2.181Z" transform="translate(-99.989 -252.919)" fill="#0f7000"/>
  <path id="Path_84184" data-name="Path 84184" d="M278.895,192.859l-9.19,6.065a4.161,4.161,0,0,1-6.447-3.721l.659-10.989a16.679,16.679,0,0,1,2.2-7.324l45-77.933a8.323,8.323,0,0,1,11.367-3.045l3.6,2.081a8.323,8.323,0,0,1,3.045,11.368l-45,77.933a16.673,16.673,0,0,1-5.243,5.569Z" transform="translate(-198.472 -74.381)" fill="#bceab5"/>
  <path id="Path_84185" data-name="Path 84185" d="M391.265,128.369l3.467-6.007,18.02,10.4-3.468,6.007Z" transform="translate(-284.868 -92.984)" fill="#37a825" opacity="0.5" style="mix-blend-mode: normal;isolation: isolate"/>
</svg>
