<svg id="svgexport-10_9_" data-name="svgexport-10 (9)" xmlns="http://www.w3.org/2000/svg" width="112.863" height="145.648" viewBox="0 0 112.863 145.648">
  <g id="Layer_24" data-name="Layer 24">
    <path id="Path_84167" data-name="Path 84167" d="M130.436,44.5,107.642,14.585a4.427,4.427,0,0,0-3.56-1.765h-81.1A4.487,4.487,0,0,0,18.5,17.307V153.951a4.487,4.487,0,0,0,4.487,4.487H126.876a4.487,4.487,0,0,0,4.487-4.487V47.22a4.338,4.338,0,0,0-.927-2.722Z" transform="translate(-18.5 -12.79)" fill="#37a825"/>
    <path id="Path_84168" data-name="Path 84168" d="M76.451,44.488,53.657,14.575a.837.837,0,0,0-.269-.3A4.308,4.308,0,0,0,50.1,12.81,4.487,4.487,0,0,0,45.61,17.3V47.211A4.487,4.487,0,0,0,50.1,51.7H72.891a4.487,4.487,0,0,0,3.56-7.209Z" transform="translate(35.485 -12.81)" fill="#199206"/>
    <path id="Path_84169" data-name="Path 84169" d="M68.868,57.079H34.617a4.487,4.487,0,0,1-4.487-4.487v-6.82a21.627,21.627,0,0,1,43.225,0v6.82a4.487,4.487,0,0,1-4.487,4.487ZM39.1,48.105H64.381V45.772a12.653,12.653,0,0,0-25.277,0Z" transform="translate(4.659 11.363)" fill="#199206"/>
    <path id="Path_84170" data-name="Path 84170" d="M79.547,32.69H37.489a10.8,10.8,0,0,0-10.769,10.8v37.6a10.8,10.8,0,0,0,10.769,10.8H79.547a10.8,10.8,0,0,0,10.829-10.8v-37.6a10.8,10.8,0,0,0-10.829-10.8Z" transform="translate(-2.131 26.778)" fill="#bceab5"/>
    <path id="Path_84171" data-name="Path 84171" d="M52.288,47.852a8.974,8.974,0,1,0-13.431,7.688v4.008a4.487,4.487,0,1,0,8.974,0V55.539a8.974,8.974,0,0,0,4.457-7.688Z" transform="translate(13.042 38.897)" fill="#199206"/>
  </g>
</svg>
