<svg xmlns="http://www.w3.org/2000/svg" width="52.355" height="52.355" viewBox="0 0 52.355 52.355">
  <g id="Tick_Square" data-name="Tick Square" transform="translate(0 0)">
    <path id="Tick_Square-2" data-name="Tick Square" d="M14.829,52.356A14.4,14.4,0,0,1,4.074,48.035,15.821,15.821,0,0,1,0,36.869V15.486A15.823,15.823,0,0,1,4.078,4.323,14.4,14.4,0,0,1,14.829,0h22.7A14.4,14.4,0,0,1,48.282,4.321a15.821,15.821,0,0,1,4.074,11.165V36.869A15.816,15.816,0,0,1,48.28,48.035a14.4,14.4,0,0,1-10.758,4.321ZM3.927,15.486V36.869c0,7.023,4.279,11.561,10.9,11.561H37.522c6.627,0,10.908-4.538,10.908-11.561V15.486a11.987,11.987,0,0,0-2.95-8.411,10.576,10.576,0,0,0-7.956-3.148h-22.7C8.206,3.927,3.927,8.465,3.927,15.486ZM21.9,33.969l-.219-.191L15.47,27.565A1.963,1.963,0,0,1,18.026,24.6l.219.191,4.825,4.823L34.108,18.577a1.963,1.963,0,0,1,2.966,2.556l-.191.221L24.46,33.778a1.964,1.964,0,0,1-2.556.191Z" transform="translate(0 0)" fill="#07e866"/>
  </g>
</svg>
