<svg xmlns="http://www.w3.org/2000/svg" width="38" height="38" viewBox="0 0 38 38">
  <g id="Group_20" data-name="Group 20" transform="translate(-15 -48)">
    <rect id="Rectangle_11" data-name="Rectangle 11" width="38" height="38" rx="8" transform="translate(15 48)" fill="#fff"/>
    <path id="Path_6" data-name="Path 6" d="M91.672,921.612c-.429.262-.5.5-.5,1.7s.069,1.441.5,1.7c.219.133.4.154,1.348.154,1.77,0,1.87-.1,1.87-1.857s-.1-1.857-1.87-1.857C92.073,921.458,91.891,921.479,91.672,921.612Zm-.5-6.756v1.857l7.015.021c6.928.021,7.019.023,7.328.185a1.2,1.2,0,0,1,.494.506l.181.342v5.523a46.216,46.216,0,0,1-.108,5.781,1.488,1.488,0,0,1-.9.761c-.192.053-2.678.082-7.151.082H91.174v3.721l7.252-.024,7.252-.023.553-.185a5.861,5.861,0,0,0,2.173-1.248,4.648,4.648,0,0,0,1.251-1.938l.212-.579v-12.41l-.229-.7a4.988,4.988,0,0,0-2.546-2.993c-1.111-.534-1.052-.53-8.9-.533l-7.015,0Z" transform="translate(-65.021 -856.319)" fill="#022f96" fill-rule="evenodd"/>
  </g>
</svg>
