<svg xmlns="http://www.w3.org/2000/svg" width="21.559" height="26.5" viewBox="0 0 21.559 26.5">
  <g id="Group_84267" data-name="Group 84267" transform="translate(-100.75 -13.561)">
    <path id="Path_84201" data-name="Path 84201" d="M6.618,16.5H21.441a2.081,2.081,0,0,1,2.118,2.042V28.41a2.081,2.081,0,0,1-2.118,2.042H6.618A2.081,2.081,0,0,1,4.5,28.41V18.542A2.081,2.081,0,0,1,6.618,16.5Z" transform="translate(97.5 8.359)" fill="none" stroke="#707070" stroke-linecap="round" stroke-linejoin="round" stroke-width="2.5"/>
    <path id="Path_84202" data-name="Path 84202" d="M10.5,12.187V8.1A5.283,5.283,0,0,1,15.946,3a5.283,5.283,0,0,1,5.446,5.1v4.083" transform="translate(95.583 11.811)" fill="none" stroke="#707070" stroke-linecap="round" stroke-linejoin="round" stroke-width="2.5"/>
  </g>
</svg>
